<svg xmlns="http://www.w3.org/2000/svg" version="1.1" xmlns:xlink="http://www.w3.org/1999/xlink" viewBox="0 0 200 200"><rect width="200" height="200" fill="url('#gradient')"></rect><defs><linearGradient id="gradient" gradientTransform="rotate(45 0.5 0.5)"><stop offset="0%" stop-color="#0941bc"></stop><stop offset="100%" stop-color="#ecd7ee"></stop></linearGradient></defs><g><g fill="#ffffff" transform="matrix(1.7631528601492252,0,0,1.7631528601492252,8.814798310823818,109.64319562100079)" stroke="#0e5278" stroke-width="0.95"><path d="M13.12-7.47L13.12-6.82Q13.12-4.74 12.34-3.13Q11.57-1.53 10.15-0.67Q8.73 0.20 6.91 0.20Q5.10 0.20 3.69-0.64Q2.29-1.47 1.50-3.03Q0.71-4.58 0.67-6.59L0.67-6.59L0.67-7.39Q0.67-9.48 1.44-11.08Q2.21-12.68 3.64-13.54Q5.07-14.41 6.89-14.41L6.89-14.41Q8.70-14.41 10.12-13.55Q11.53-12.70 12.32-11.11Q13.11-9.52 13.12-7.47L13.12-7.47ZM9.63-6.76L9.63-7.41Q9.63-9.53 8.92-10.63Q8.21-11.73 6.89-11.73L6.89-11.73Q4.32-11.73 4.17-7.86L4.17-7.86L4.16-6.82Q4.16-4.73 4.85-3.60Q5.55-2.48 6.91-2.48L6.91-2.48Q8.21-2.48 8.92-3.58Q9.62-4.69 9.63-6.76L9.63-6.76ZM18.76 0L15.46 0L15.46-8.28L13.93-8.28L13.93-10.57L15.46-10.57L15.46-11.41Q15.46-13.21 16.52-14.21Q17.59-15.21 19.51-15.21L19.51-15.21Q20.21-15.21 21.05-15L21.05-15L21.06-12.58Q20.76-12.67 20.25-12.67L20.25-12.67Q18.76-12.67 18.76-11.38L18.76-11.38L18.76-10.57L20.82-10.57L20.82-8.28L18.76-8.28L18.76 0ZM26.01 0L22.71 0L22.71-8.28L21.17-8.28L21.17-10.57L22.71-10.57L22.71-11.41Q22.71-13.21 23.77-14.21Q24.83-15.21 26.76-15.21L26.76-15.21Q27.46-15.21 28.30-15L28.30-15L28.31-12.58Q28.01-12.67 27.50-12.67L27.50-12.67Q26.01-12.67 26.01-11.38L26.01-11.38L26.01-10.57L28.07-10.57L28.07-8.28L26.01-8.28L26.01 0ZM34.10 0.20L34.10 0.20Q31.67 0.20 30.17-1.25Q28.66-2.71 28.66-5.03L28.66-5.03L28.66-5.30Q28.66-6.92 29.26-8.16Q29.86-9.40 31.02-10.08Q32.17-10.76 33.75-10.76L33.75-10.76Q35.98-10.76 37.27-9.38Q38.55-8.00 38.55-5.53L38.55-5.53L38.55-4.25L32.01-4.25Q32.19-3.36 32.78-2.85Q33.38-2.34 34.33-2.34L34.33-2.34Q35.89-2.34 36.77-3.44L36.77-3.44L38.27-1.66Q37.66-0.81 36.53-0.31Q35.40 0.20 34.10 0.20ZM33.73-8.22L33.73-8.22Q32.29-8.22 32.01-6.31L32.01-6.31L35.33-6.31L35.33-6.56Q35.35-7.35 34.93-7.79Q34.51-8.22 33.73-8.22ZM46.33-10.64L46.27-7.59L45.19-7.67Q43.63-7.67 43.19-6.69L43.19-6.69L43.19 0L39.90 0L39.90-10.57L42.99-10.57L43.10-9.21Q43.93-10.76 45.41-10.76L45.41-10.76Q45.94-10.76 46.33-10.64L46.33-10.64ZM55.40 0L52.89-5.02L51.04-5.02L51.04 0L47.61 0L47.61-14.22L53.20-14.22Q55.73-14.22 57.16-13.10Q58.58-11.97 58.58-9.92L58.58-9.92Q58.58-8.44 57.98-7.46Q57.38-6.48 56.10-5.88L56.10-5.88L59.07-0.15L59.07 0L55.40 0ZM51.04-11.57L51.04-7.67L53.20-7.67Q54.18-7.67 54.67-8.18Q55.17-8.69 55.17-9.61Q55.17-10.53 54.67-11.05Q54.17-11.57 53.20-11.57L53.20-11.57L51.04-11.57ZM65.62 0.20L65.62 0.20Q63.18 0.20 61.68-1.25Q60.18-2.71 60.18-5.03L60.18-5.03L60.18-5.30Q60.18-6.92 60.78-8.16Q61.38-9.40 62.53-10.08Q63.68-10.76 65.26-10.76L65.26-10.76Q67.49-10.76 68.78-9.38Q70.07-8.00 70.07-5.53L70.07-5.53L70.07-4.25L63.53-4.25Q63.70-3.36 64.30-2.85Q64.89-2.34 65.84-2.34L65.84-2.34Q67.40-2.34 68.28-3.44L68.28-3.44L69.79-1.66Q69.17-0.81 68.04-0.31Q66.91 0.20 65.62 0.20ZM65.24-8.22L65.24-8.22Q63.80-8.22 63.53-6.31L63.53-6.31L66.85-6.31L66.85-6.56Q66.87-7.35 66.45-7.79Q66.03-8.22 65.24-8.22ZM80.63 0L77.34 0Q77.17-0.32 77.03-0.95L77.03-0.95Q76.12 0.20 74.49 0.20L74.49 0.20Q73.00 0.20 71.95-0.71Q70.91-1.61 70.91-2.98L70.91-2.98Q70.91-4.70 72.18-5.58Q73.45-6.46 75.87-6.46L75.87-6.46L76.88-6.46L76.88-7.01Q76.88-8.47 75.63-8.47L75.63-8.47Q74.45-8.47 74.45-7.31L74.45-7.31L71.16-7.31Q71.16-8.85 72.47-9.80Q73.77-10.76 75.79-10.76Q77.81-10.76 78.98-9.78Q80.16-8.79 80.19-7.07L80.19-7.07L80.19-2.39Q80.21-0.94 80.63-0.17L80.63-0.17L80.63 0ZM75.28-2.15L75.28-2.15Q75.90-2.15 76.30-2.41Q76.71-2.68 76.88-3.01L76.88-3.01L76.88-4.70L75.93-4.70Q74.21-4.70 74.21-3.15L74.21-3.15Q74.21-2.71 74.51-2.43Q74.81-2.15 75.28-2.15ZM81.59-5.36L81.59-5.36Q81.59-7.87 82.68-9.32Q83.76-10.76 85.70-10.76L85.70-10.76Q87.12-10.76 88.09-9.65L88.09-9.65L88.09-15L91.39-15L91.39 0L88.43 0L88.26-1.13Q87.25 0.20 85.68 0.20L85.68 0.20Q83.80 0.20 82.70-1.25Q81.59-2.70 81.59-5.36ZM84.89-5.76L84.88-5.16Q84.88-2.34 86.52-2.34L86.52-2.34Q87.62-2.34 88.09-3.26L88.09-3.26L88.09-7.29Q87.64-8.22 86.54-8.22L86.54-8.22Q85.02-8.22 84.89-5.76L84.89-5.76ZM95.81-10.57L97.48-4.61L99.24-10.57L102.76-10.57L98.46 1.77L98.27 2.22Q97.35 4.27 95.03 4.27L95.03 4.27Q94.38 4.27 93.67 4.07L93.67 4.07L93.67 1.72L94.10 1.72Q94.79 1.72 95.16 1.52Q95.53 1.32 95.70 0.80L95.70 0.80L95.97 0.10L92.29-10.57L95.81-10.57Z"></path></g></g></svg>